<svg xmlns="http://www.w3.org/2000/svg" viewBox="0 0 64 64" role="img" aria-label="HomeCloud favicon">
  <defs>
    <linearGradient id="bg" x1="0" y1="0" x2="1" y2="1">
      <stop offset="0%" stop-color="#6c63ff"/>
      <stop offset="100%" stop-color="#5fbbe8"/>
    </linearGradient>
  </defs>
  <rect width="64" height="64" rx="14" fill="#0d1424"/>
  <rect x="5" y="5" width="54" height="54" rx="12" fill="url(#bg)" opacity="0.16"/>

  <path d="M15 34c0-5 4-9 9-9 1.2 0 2.3.2 3.3.6A11 11 0 0 1 48 31a8 8 0 1 1 0 16H24a9 9 0 0 1-9-9c0-1.4.3-2.8 1-4z"
        fill="#f7f9ff" opacity="0.94"/>

  <path d="M32 19 20 29h3v16h18V29h3L32 19z" fill="#2f3560"/>
  <rect x="28.5" y="34" width="7" height="11" rx="1.3" fill="#f7f9ff" opacity="0.9"/>
</svg>
