<svg xmlns="http://www.w3.org/2000/svg" viewBox="0 0 64 64" role="img" aria-label="HomeCloud favicon">
  <defs>
    <linearGradient id="cloudGrad" x1="0" y1="1" x2="1" y2="0">
      <stop offset="0%" stop-color="#081f73"/>
      <stop offset="55%" stop-color="#1579d3"/>
      <stop offset="100%" stop-color="#45bdea"/>
    </linearGradient>
    <linearGradient id="roofGrad" x1="0" y1="1" x2="1" y2="0">
      <stop offset="0%" stop-color="#05246e"/>
      <stop offset="100%" stop-color="#1b8de0"/>
    </linearGradient>
  </defs>

  <path d="M15.5 55c-7 0-12.7-5.6-12.7-12.6 0-6.5 4.9-11.9 11.2-12.6 2.3-8.1 9.8-13.9 18.5-13.9 10.2 0 18.5 7.9 19.1 18 .4 0 .8-.1 1.2-.1 5.9 0 10.7 4.8 10.7 10.6S58.7 55 52.8 55H15.5z" fill="url(#cloudGrad)"/>

  <path d="M18.2 40.5 31.8 29c.9-.7 2.1-.7 2.9 0l13.6 11.5" fill="none" stroke="url(#roofGrad)" stroke-linecap="round" stroke-linejoin="round" stroke-width="5.4"/>

  <path d="M21.8 39.6v12.8c0 1.4 1.1 2.6 2.6 2.6h16.9c1.4 0 2.6-1.1 2.6-2.6V39.6L33.2 30.9z" fill="#ffffff"/>

  <rect x="30.2" y="44.3" width="5.6" height="10.7" rx="1.2" fill="#0b2d83"/>
  <rect x="26.2" y="38.6" width="3.1" height="3.1" rx=".6" fill="#0b2d83"/>
  <rect x="30.4" y="38.6" width="3.1" height="3.1" rx=".6" fill="#0b2d83"/>
  <rect x="34.6" y="38.6" width="3.1" height="3.1" rx=".6" fill="#0b2d83"/>
  <rect x="38.8" y="38.6" width="3.1" height="3.1" rx=".6" fill="#0b2d83"/>
</svg>
